<?xml version="1.0" encoding="UTF-8"?>
<svg id="Layer_1" data-name="Layer 1" xmlns="http://www.w3.org/2000/svg" version="1.1" xmlns:xlink="http://www.w3.org/1999/xlink" viewBox="0 0 800 750">
  <defs>
    <style>
      .cls-1 {
        fill: #db370b;
      }

      .cls-1, .cls-2, .cls-3, .cls-4, .cls-5, .cls-6, .cls-7, .cls-8, .cls-9, .cls-10, .cls-11, .cls-12, .cls-13, .cls-14, .cls-15 {
        stroke-width: 0px;
      }

      .cls-2 {
        fill: url(#linear-gradient);
      }

      .cls-3 {
        fill: #f4d592;
      }

      .cls-4 {
        fill: #d61c03;
      }

      .cls-5 {
        fill: url(#linear-gradient-5);
      }

      .cls-6 {
        fill: #7f1206;
      }

      .cls-7 {
        fill: #b77737;
      }

      .cls-8 {
        fill: url(#linear-gradient-2);
      }

      .cls-9 {
        fill: #56280a;
      }

      .cls-10 {
        fill: url(#linear-gradient-3);
      }

      .cls-11 {
        fill: #bc1f00;
      }

      .cls-12 {
        fill: #332114;
      }

      .cls-13 {
        fill: #63381b;
      }

      .cls-14 {
        fill: #965923;
      }

      .cls-15 {
        fill: url(#linear-gradient-4);
      }
    </style>
    <linearGradient id="linear-gradient" x1="367.5" y1="509.4" x2="381.9" y2="448.9" gradientTransform="translate(388.8 16.3) rotate(45.3)" gradientUnits="userSpaceOnUse">
      <stop offset="0" stop-color="#b77737"/>
      <stop offset="1" stop-color="#965923"/>
    </linearGradient>
    <linearGradient id="linear-gradient-2" x1="625.5" y1="619.4" x2="631.5" y2="558.6" gradientTransform="matrix(1,0,0,1,0,0)" xlink:href="#linear-gradient"/>
    <linearGradient id="linear-gradient-3" x1="217.9" y1="227" x2="235" y2="196.1" gradientTransform="translate(565 93.9) rotate(-161.9) scale(1 -1)" gradientUnits="userSpaceOnUse">
      <stop offset="0" stop-color="#b77737"/>
      <stop offset="1" stop-color="#332114"/>
    </linearGradient>
    <linearGradient id="linear-gradient-4" x1="305.5" y1="246.6" x2="324.2" y2="213" gradientTransform="matrix(1,0,0,1,0,0)" xlink:href="#linear-gradient-3"/>
    <linearGradient id="linear-gradient-5" x1="664.1" y1="353.4" x2="726.6" y2="278.9" gradientTransform="translate(-48.5 53.6) rotate(-8.3)" xlink:href="#linear-gradient-3"/>
  </defs>
  <path class="cls-2" d="M377.2,526.9s-32.3,47.9-43,63.1c-10.7,15.2-79.4,58.5-79.4,58.5,0,0-46.5-6.4-48.6,12.5-2.6,23,30,27.1,46.6,25,60.9-7.8,130.5-56.1,143.8-69.2,13.2-13.1-11.5-89-19.5-89.8Z"/>
  <path class="cls-8" d="M586.7,540.4c0,1.1,26.7,24.5,29.6,36.5,2.9,12.1-3.7,63.9-3.7,63.9,0,0-18.6,5.1-17.9,19.4.7,14.2,33.2,15,47.9,9.1,14.6-5.8,20.1-14.2,24.1-34,4-19.7,15.3-84,10.2-94.6-5.1-10.6-38.7-24.8-40.6-25.2-1.8-.4-49.7,24.8-49.7,24.8Z"/>
  <path class="cls-7" d="M708.9,534.5c-14.9,11.8-33.5,23.9-56.3,36.8-84.2,47.8-224.8,62.7-273.5,41.1-14.6-6.4-26.7-19.9-37.7-37.4-12.7-20-23.8-45.3-35.3-71.1-6.1-13.7-7.7-25.7-11.7-33.8-4-7.8-6.2-12.4-6.2-12.4,0,0-37.9-86.8-32.4-135.5,5.4-48.7,13.6-68.4,26.3-62.5,4.6,2.1,10.2,11.3,16.7,24.2,12.9,25.8,29.4,66.5,47.7,94.8,8,12.4,16.3,22.4,24.9,27.7,33.5,21,86.9,20.3,142.3-.4,7.1-2.6,14.4-5.7,21.6-9,32-14.9,57.4-31.8,78.3-44.7,20.1-12.4,36.1-21,50.1-20.8,28.7.6,67.6,36.9,85,96.6,12.7,43.6.7,74.4-39.5,106.4Z"/>
  <path class="cls-12" d="M634.8,376.3c9.2,23.1-13.8,63-42.9,62.2-24.6-.6-57.4-24.4-78.4-31.4,7.2-2.6,14.4-5.7,21.6-9,32.1-14.9,57.4-31.8,78.4-44.7,8,4.5,17,11.7,21.4,22.9Z"/>
  <path class="cls-12" d="M482.4,456.6c-11.1,17.5,14.4,51.8,38.4,30,24-21.8-23-54.4-38.4-30Z"/>
  <path class="cls-14" d="M62,489.2s31.4,36.5,65,38c33.6,1.5,100.3-26.5,100.3-26.5l6.4-29-141.8,4.4-30,13.2Z"/>
  <path class="cls-10" d="M278.6,245c-2.2,4.1-8.7,8.8-14.1,7.6-5.4-1.2-30.7-22.8-33.7-73.6-3-50.8,29.4-122.4,58.4-121.9,29,.5-9.6,81.2-12,125.9-2.4,44.8,4.2,57,1.5,62Z"/>
  <path class="cls-7" d="M226.1,499.8s31.8-12.8,47.1-4c15.3,8.8,24.8,17.5,24.8,17.5,0,0,13.9-26.3,11.7-28.5-2.2-2.2-36.5-38.7-43.1-39.5-6.6-.7-36.5,15.7-36.5,15.7l-4,38.7Z"/>
  <path class="cls-1" d="M180.3,487.5s-22.1,49.1-12.4,85.7c9.7,36.6,48.4,42.9,58.1,33.2,9.7-9.7,0-53.9,1.4-93.3,1.4-39.4,5.5-55.3,5.5-55.3l-52.5,29.7Z"/>
  <path class="cls-11" d="M207.2,481.7s-8,29.4-8.3,55.3c-.3,25.9,2.8,45.3,2.8,45.3,0,0-11.7-20.1-12.4-42.2-1-30.1,8-56.3,8-56.3l10-2.1Z"/>
  <path class="cls-7" d="M239.6,239.3c33.1-9.6,81.8-7.3,96.5,13.2,14.6,20.5,8,73.1,20.5,110.3,12.4,37.3,21.9,57,21.9,57,0,0-13.2,58.5-36.5,76.7-23.4,18.3-36.9,23.7-36.9,23.7l-46.4-51.5s-46,38.7-111.1,45.3c-25.5,2.6-51.1-23.4-59.9-24.1-8.8-.7-23.6,9.6-36.5,5.8-27.8-8-46.8-63.6-46-103,.7-39.5,33.6-54.8,63.6-62.1,30-7.3,99.4-21.9,119.1-34.3,19.7-12.4,34.3-51.9,51.9-57Z"/>
  <path class="cls-14" d="M228.2,488.6s21-9.8,47.7-36.3c29.2-29,40-74.3,40-74.3,0,0-6.9,52.8-36.5,82.4-29.6,29.6-51.6,39.7-51.6,39.7l.5-11.5Z"/>
  <path class="cls-15" d="M313.6,252.7c.9,5,6,12.1,12.1,12.6,6,.5,39.5-13.2,59.7-64.7,20.3-51.5,11-136.5-19.2-145.8-30.1-9.3-17.5,87.1-30.1,134.3-12.6,47.1-23.6,57.5-22.5,63.6Z"/>
  <path class="cls-12" d="M219.9,276c19.5,3.1,1.7,39.8-10,37-11.7-2.8-1.8-38.9,10-37Z"/>
  <path class="cls-12" d="M277.9,286.4c14,2.2,4.2,38.9-8.6,36.9-12.8-2-2.4-38.6,8.6-36.9Z"/>
  <path class="cls-6" d="M363.4,383.6s9.9.5,15.3,7.7c5.5,7.1,4.4,36.2-26.3,78.9-30.7,42.7-64.7,58.6-70.7,52.1-6-6.6,1.9-20,1.9-20l9,6.3s27.9-12.1,49.9-42.2c21.9-30.1,28.2-63.3,28.2-63.3l-7.4-19.5Z"/>
  <path class="cls-4" d="M378.8,391.3s9.6,9.3,18.4,14.5c8.8,5.2,20.3,6.9,20.3,6.9,0,0,6.6,40.3-35.3,87.7-41.9,47.4-67.7,58.1-67.7,58.1,0,0-8.2-10.4-16.4-18.9-8.2-8.5-15.9-16.9-15.9-16.9,0,0,25.6,4.2,64.9-45.3,41.5-52.2,31.8-86,31.8-86Z"/>
  <path class="cls-5" d="M670.4,340.2s39-56.7,38.7-96.5c-.3-39.8-31.1-121.7-10-128.9,21.1-7.2,72,32.7,70.4,115.2-1.6,82.6-87.9,123.6-87.9,123.6l-11.2-13.5Z"/>
  <path class="cls-9" d="M272.2,242.5c-4.6,9.3,6.2,12.5,14.3,21,8,8.5,8,15.2,14.3,12.5,6.2-2.7,4.5-16.1-1.8-25-6.2-8.9-22.7-16.5-26.8-8.5Z"/>
  <path class="cls-9" d="M240.4,243.2c2.3,9.6-8.4,10.2-17.7,16.3-9.2,6.1-10.7,12.3-15.9,8.5-5.2-3.8-.7-15.8,7-22.7,7.7-6.9,24.5-10.4,26.5-2.1Z"/>
  <path class="cls-3" d="M708.9,534.5c-14.9,11.8-33.5,23.9-56.3,36.8-84.2,47.8-224.8,62.7-273.5,41.1-14.6-6.4-26.7-19.9-37.7-37.4.2-7.1,3.7-12.5,12.2-11.2,14.6,2.2,30.7,49,106,40.9,75.2-8.1,138.8-30,173.9-49,35.1-19,43.8-46,61.4-32.9,5.7,4.2,10.5,7.9,14.1,11.7Z"/>
  <path class="cls-7" d="M463.2,539.5s-5.9,23.1-12.7,36.5c-6.8,13.3-66.8,77.5-66.8,77.5,0,0-51.7-1-53.6,23.5-1.1,15,29.6,19.4,56.9,18.7,22.4-.5,107.7-52.5,120.6-67.5,12.9-14.9,18.5-46.3,19.5-56,.9-9.7-42.2-65.9-64-32.7Z"/>
  <path class="cls-7" d="M627.9,490c8.1,12.6,68.7,62.8,72.7,78.9,4,16.1-9.5,72.7-9.5,72.7,0,0-19,5.1-19.4,20.5-.4,15.3,40.2,30,58.8,9.5,18.6-20.5,41.7-124.6,39.5-141.8-2.2-17.2-12.4-53-16.8-80-4.4-27-54.1-51.1-92.1-30.3-38,20.8-39.8,60.3-33.2,70.5Z"/>
  <path class="cls-12" d="M682.9,284.2s7.3-47.9-5.6-86.3c-12.9-38.5-36.7-76-30.3-89.1,6.4-13.1,31.4-1.1,31.4-1.1,0,0-16.1-2.5-16,15.7.1,18.2,18.2,47.1,25.7,84.4,7.4,37.3-5.2,76.5-5.2,76.5Z"/>
  <path class="cls-12" d="M770.9,148.5s15,39.2,13.3,85.2c-1.8,46-36.4,78.1-36.4,78.1,0,0,34.6-11.4,46.3-75.7,6.4-35-23.2-87.5-23.2-87.5Z"/>
  <path class="cls-12" d="M621.7,143.6s19.7,31.4,30.7,65.8c11,34.3,11,63.6,11,63.6,0,0,5.7-35.8-4.4-66.5-13.9-42.4-37.3-62.8-37.3-62.8Z"/>
  <path class="cls-13" d="M167,401.3c-.3,4.8-8.5,13.5-19.9,22.3-10.5,8.1-23.8,16.1-36.4,21.2-10,4.1-19.6,6.3-27,5.3-7.7-1.1-16.3-5.8-24.7-12.5-9.9-7.9-19.4-18.5-26.2-28.8-7.9-11.7-12.4-22.9-10.7-29.6,3.5-13.7,38-7.9,71.1-5.1,33.1,2.9,74.7,14.5,73.9,27.1Z"/>
  <path class="cls-12" d="M147,423.6c-10.5,8.1-23.8,16.1-36.4,21.2-3.5-4-7.3-11.2-.9-19.8,9.9-13.2,30.1-14.6,34.5-7,1.2,2.1,2.1,3.9,2.8,5.5Z"/>
  <path class="cls-12" d="M67.8,423c0,6.2-4.7,11.4-8.9,14.7-9.9-7.9-19.4-18.5-26.2-28.8.8-3.6,3.1-7.6,9.4-8.4,11.1-1.5,25.5,11.5,25.7,22.6Z"/>
</svg>