<svg xmlns="http://www.w3.org/2000/svg" viewBox="0 0 531.6 198.1"><path d="M193.7 121.7c3.6-.5 7.1-1.6 10.4-3.7l-1.1-.9-14.3-11.3c-1-.8-1.9-1.3-3-1.6-4.2-1.3-7-4-7.7-8.4l-.3-4.8a29611.3 29611.3 0 0 1 .2-63.6c.3-4.6 2.6-8 7-9.4 2-.6 4-.7 6-.6 4.7.2 8.7 3.6 9.6 8.1.3 1.7.4 3.5.4 5.2v56.2c0 1 .2 1.6 1 2.2l7.4 5.8 8 6.3c.3-2.6.8-4.8.8-7V27.7c0-7-2.4-13.4-7.3-18.6A28.8 28.8 0 0 0 185 .3a27.6 27.6 0 0 0-24.3 27.3v66.7c0 7.7 2.8 14.4 8.4 19.7 7 6.5 15.3 8.9 24.7 7.7ZM37.2 120.9V21h-17V121h17Z" style="fill:#ec3568"/><path d="M81.8 120.8V23h-17v98h17Z" style="fill:#882f7a"/><path d="m357 174.8-2.2-1 1.1-.8c6-4 5.8-13 1.3-16.9a15.8 15.8 0 0 0-10.8-3.7H325v44.7h23a20 20 0 0 0 8.3-1.8c4.4-2 6.6-5.5 6.7-10.3 0-4.6-1.9-8-6-10.2Zm-22.3-13.5c4 0 8-.2 11.9 0 3 .3 4.4 2.4 3.9 5.1-.2 1-1 2-1.7 2.8-.5.5-1.4.9-2.2 1l-12 .5v-9.4Zm15.6 26.5c-1.1.4-2.3.6-3.5.6h-12.2v-9.6h11.6c1.5 0 3 .3 4.3.8 1.9.7 2.7 2.2 2.6 4.2 0 2-1 3.3-2.8 4Z" style="fill:#5c5c5c"/><path d="m474.6 104.5-2.1.3V122l2.7-.2c12.7-1 21.4-8.6 24.2-21 1.8-8.1 1.7-16.2 1-24.3-.5-4.4-1.6-8.6-3.8-12.4-1-1.7-2.2-2.8-4.3-2.4h-34.5l-.1.3 4.8 2.1 15.4 6.7a8.4 8.4 0 0 1 5 6.9c1 6.2 1 12.5 0 18.8a9.2 9.2 0 0 1-8.2 8Z" style="fill:#5073d4"/><path d="M450.6 57.1c.6.5 1.4 1 2.2 1h36.6l1.3-.2-2.8-1.7-13-5.5c-3.1-1.3-6.3-2.6-9.4-4.1-3-1.5-5-4-5.2-7.3-.2-3.8-.3-7.7 0-11.5.5-5 3-9 8.3-10.3V0a26.4 26.4 0 0 0-22.7 16.2 45 45 0 0 0-2.3 26.9c1 5.3 3 10.2 7 14Z" style="fill:#f67ca4"/><path d="M514 120.8h17v-59h-17v59Z" style="fill:#ff5f23"/><path d="M428.5 120.9v-59h-17v59h17Z" style="fill:#f8b02c"/><path d="M305.4 120.9h17v-59h-17v59Z" style="fill:#f67ca4"/><path d="M144.6 120.8v-59h-17v59h17Z" style="fill:#5073d4"/><path d="M531 1.1h-17V58h17V1Z" style="fill:#5fb7c9"/><path d="M428.6 1.1h-17.1v56.8h17V1.1Z" style="fill:#882f7a"/><path d="M305.4 58h17.1V1h-17V58Z" style="fill:#5073d4"/><path d="M288.6 1.1h-17V58h17V1Z" style="fill:#6b993f"/><path d="M250.2 1.1h-17V58h17V1Z" style="fill:#ff5f23"/><path d="M144.6 1.1h-17V58h17V1Z" style="fill:#f67ca4"/><path d="M308.5 152.5h-9.7v25c0 1.3-.1 2.6-.4 4-.8 4.3-4 7-8.5 7.2-5.3.1-8.6-2-9.8-6.6-.4-1.5-.5-3-.5-4.5v-25.1h-10V178c0 1.5.1 3 .4 4.5.8 5.6 3.1 10.4 8.4 13a23 23 0 0 0 21.4-.1c6.1-3 8.5-8.7 8.7-15.2.3-9 .1-18.1.1-27.2l-.1-.5Z" style="fill:#5c5c5c"/><path d="M57.1 1.1H.2v16h57v-16Z" style="fill:#5fb7c9"/><path d="M195 188.7c-4.1.4-7.7-.8-10.6-3.8a15.3 15.3 0 0 1-.7-19.4 12 12 0 0 1 7.3-4.5c5.5-1 10 1.2 14 4.8l6.2-7.2-.5-.6c-5.9-5.6-13-7.2-20.9-6-9.6 1.4-16 6.9-18.6 16.2-2.6 9.5-.4 18 7.2 24.5 6.2 5.3 13.6 6.2 21.4 4.5 4.8-1 8.5-3.7 11.7-7.3l-6.2-6.2c-6.5 4.5-7 4.7-10.3 5Z" style="fill:#5c5c5c"/><path d="m400.8 120.9-17-50.5-16.3 2.4 15 48h18.3Z" style="fill:#ff5f23"/><path d="M0 179.5h156.7v-5.3H0v5.3ZM375 179.5h156.6v-5.3H375v5.3Z" style="fill:#00b4cd"/><path d="M116 1H64.8v16.1h51v-16Z" style="fill:#ff5f23"/><path d="M481 21.8c1.6 2.7 2.4 5.6 2.5 8.8v4.9h17.1c0-4 .4-7.9 0-11.7A26.7 26.7 0 0 0 485.2 3c-4-2-8.2-3-12.8-3v17.2l1.1.1c3 .5 5.7 1.7 7.3 4.5Z" style="fill:#6b993f"/><path d="M235.5 152.5h-9.8V197h32.1v-9h-22.3v-35.6Z" style="fill:#5c5c5c"/><path d="M468.6 121.9v-17.3c-3.4-.5-6.2-2-7.6-5.1-.9-2-1.5-4.2-1.8-6.4-.3-2 0-4 0-6H442c-1 9.8.6 18.7 7.5 26a28.8 28.8 0 0 0 19 8.8Z" style="fill:#ec3568"/><path d="M194 87.3 185.2 98l32.3 26.1 8.8-10.5L194 87.4Z" style="fill:#5fb7c9"/><path d="M116 103.8H85.7v17.1h30.1v-17.1Z" style="fill:#6b993f"/><path d="M111.5 52.5H85.8v16h25.8v-16Z" style="fill:#f8b02c"/><path d="M339.2 120.8h17.2V17.3h-17.2V121Z" style="fill:#ec3568"/><path d="M395.6 22a26.6 26.6 0 0 0-7.8-14c-5.6-5.2-12.3-6.9-19.6-7h-27.5l-1.5.1v16.1H357c3.8 0 7.6 0 11.5.2 6.1.5 9.6 3.6 10.7 9.5a49.7 49.7 0 0 1-.2 18.8c-.8 4.1-3.2 7.1-7.4 8.2-1.5.4-3 .6-4.6.6h-6.8v15.2h2.4l13.5-1.9c3.1-.4 6-.9 8.7-3 4.7-3.5 8.3-7.6 10-13.2 3.1-9.8 3-19.6.8-29.5Z" style="fill:#5fb7c9"/><path d="M250.8 96.7c-.4-1.9-.5-3.8-.5-5.7V61.8H233V95.2a27.9 27.9 0 0 0 27.8 26.8v-17.3c-5.3 0-9-3-10.1-8Z" style="fill:#882f7a"/><path d="M288.6 63.1v-1.3h-17.2v28.9c0 2 0 3.9-.4 5.7-.9 5-4.8 8.3-9.8 8.3h-.3V122h.2c15 0 27.5-12.5 27.5-27.4V63.1Z" style="fill:#f8b02c"/></svg>
